<svg xmlns="http://www.w3.org/2000/svg" width="398.279" height="83.479" viewBox="0 0 398.279 83.479"><defs><style>.a{fill:#002a2d;}.b{fill:#004745;}.c{fill:#fff;}</style></defs><g transform="translate(1579.675 498.478)"><g transform="translate(-1471.356 -477.357)"><g transform="translate(0 0)"><path class="a" d="M-1343.868-437.234h-.1a9.057,9.057,0,0,1-3.888,5.609,11.389,11.389,0,0,1-6.607,2.089q-5.515-.055-8.335-3.973a14.833,14.833,0,0,1-2.821-9.2,15.194,15.194,0,0,1,2.973-9.54q2.922-3.894,8.54-3.948a10.362,10.362,0,0,1,6.606,2.244,10.434,10.434,0,0,1,3.533,5.716h.1v-7.332h1.041v26.612q-.153,11.085-11.105,11.03a11.5,11.5,0,0,1-7-2.086q-2.916-2.035-3.169-6.575h1.04q.255,4.031,2.841,5.838a10.65,10.65,0,0,0,6.236,1.781q10.016.053,10.116-9.988Zm-.051-5.475a14.4,14.4,0,0,0-2.541-8.648,8.908,8.908,0,0,0-7.647-3.8q-5.158.053-7.8,3.642a14.346,14.346,0,0,0-2.668,8.805,13.825,13.825,0,0,0,2.618,8.593,8.842,8.842,0,0,0,7.445,3.539,9.551,9.551,0,0,0,7.9-3.618,13.366,13.366,0,0,0,2.694-8.514" transform="translate(1365.622 456.473)"/><path class="a" d="M-1308.885-428.049h-1.042v-27.529h1.042v6.782h.108a9.689,9.689,0,0,1,3.267-5.32q2.483-2.193,7.194-2.088v1.042q-5.449-.1-7.984,3.327a13.4,13.4,0,0,0-2.585,8.2Z" transform="translate(1338.11 456.478)"/><path class="a" d="M-1264.434-427.434h-1.04v-6.795l-.1-.031a9.5,9.5,0,0,1-3.169,5.328,9.705,9.705,0,0,1-6.438,2.15,9.392,9.392,0,0,1-6.793-2.645q-2.685-2.519-2.686-7.286v-18.249h1.04v18.137q.052,4.708,2.535,6.855a8.612,8.612,0,0,0,5.906,2.146,8.383,8.383,0,0,0,7.274-3.57,13,13,0,0,0,2.432-8.009v-15.559h1.042Z" transform="translate(1325.631 455.862)"/><path class="a" d="M-1232.839-418.582h-1.041v-36.99h1.041v7.695h.1a12.055,12.055,0,0,1,3.825-5.973,10.606,10.606,0,0,1,6.865-2.349,10.039,10.039,0,0,1,8.334,4q3.014,3.976,3.015,10.352a17.014,17.014,0,0,1-2.913,10.065,9.85,9.85,0,0,1-8.436,4.391q-8.664-.236-10.691-8.352h-.1Zm10.791-9.854q5.5-.1,7.929-4.348a17.678,17.678,0,0,0,2.381-9.064,16.726,16.726,0,0,0-2.533-9.352,8.937,8.937,0,0,0-7.777-3.957,9.493,9.493,0,0,0-7.954,3.9,15.491,15.491,0,0,0-2.837,9.4q.254,13.232,10.791,13.413" transform="translate(1300.546 456.473)"/><path class="a" d="M-1181.961-441.8a16.431,16.431,0,0,1,3.117-10.063,10.578,10.578,0,0,1,8.917-4.341,10.6,10.6,0,0,1,8.945,4.341,16.723,16.723,0,0,1,3.041,10.063,16.716,16.716,0,0,1-3.041,10.012q-3.066,4.261-8.994,4.391a10.561,10.561,0,0,1-8.868-4.391,16.424,16.424,0,0,1-3.117-10.012m1.041,0a15.126,15.126,0,0,0,2.859,9.275,9.446,9.446,0,0,0,8.123,4.085,9.647,9.647,0,0,0,8.2-4.085,15.511,15.511,0,0,0,2.757-9.275,15.775,15.775,0,0,0-2.757-9.3,9.679,9.679,0,0,0-8.2-4.061,9.477,9.477,0,0,0-8.123,4.061,15.382,15.382,0,0,0-2.859,9.3" transform="translate(1274.901 456.474)"/><path class="b" d="M-1101.378-429.758q0,6.157-3.507,9.29t-10.091,3.131a20.236,20.236,0,0,1-4.284-.454,13.442,13.442,0,0,1-3.855-1.474,8.6,8.6,0,0,1-2.892-2.7,8.494,8.494,0,0,1-1.338-3.988h6.1a4.391,4.391,0,0,0,2.223,3.239,10.058,10.058,0,0,0,4.416.83q3.642,0,5.381-1.793a7.292,7.292,0,0,0,1.74-5.275v-4.227h-.107a9.3,9.3,0,0,1-3.506,3.587,9.408,9.408,0,0,1-4.792,1.285,12.872,12.872,0,0,1-5.541-1.124,10.379,10.379,0,0,1-3.909-3.133,13.465,13.465,0,0,1-2.248-4.631,21.266,21.266,0,0,1-.723-5.673,16.219,16.219,0,0,1,.857-5.328,13.568,13.568,0,0,1,2.489-4.416,11.613,11.613,0,0,1,3.962-3.026,12.083,12.083,0,0,1,5.22-1.1,10.283,10.283,0,0,1,4.9,1.152,7.582,7.582,0,0,1,3.292,3.4h.107v-3.8h6.1Zm-10.172-4.175a6.392,6.392,0,0,0,2.328-2.195,10.448,10.448,0,0,0,1.311-3.105,14.5,14.5,0,0,0,.429-3.534,11.063,11.063,0,0,0-1.847-6.53,6.385,6.385,0,0,0-5.594-2.624,6.494,6.494,0,0,0-3.346.83,6.444,6.444,0,0,0-2.276,2.221,10.43,10.43,0,0,0-1.259,3.078,15.087,15.087,0,0,0-.4,3.506,13.319,13.319,0,0,0,.428,3.4,8.915,8.915,0,0,0,1.285,2.865,6.365,6.365,0,0,0,5.568,2.89,6.84,6.84,0,0,0,3.373-.8" transform="translate(1248.397 456.741)"/><path class="b" d="M-1061.587-440.573a8.919,8.919,0,0,0,1.928,5.837,6.719,6.719,0,0,0,5.515,2.355q5.139,0,6.745-4.6h5.782a11.108,11.108,0,0,1-4.417,6.933,13.5,13.5,0,0,1-8.111,2.489q-6.372,0-9.958-4.014t-3.588-10.545a16.645,16.645,0,0,1,.938-5.595,14.357,14.357,0,0,1,2.7-4.686,12.529,12.529,0,0,1,4.255-3.184,12.921,12.921,0,0,1,5.489-1.152,12.67,12.67,0,0,1,5.38,1.124,12.7,12.7,0,0,1,4.2,3.106,13.559,13.559,0,0,1,2.676,4.55,15.9,15.9,0,0,1,.911,5.354,19.2,19.2,0,0,1-.107,2.033Zm14.241-4.014a8.243,8.243,0,0,0-2.061-5.194,6.254,6.254,0,0,0-4.9-2.14,6.878,6.878,0,0,0-5.141,2.088,7.607,7.607,0,0,0-2.141,5.246Z" transform="translate(1218.455 456.741)"/><path class="b" d="M-1008.336-455.99h5.781v4.07l.108.106a10.24,10.24,0,0,1,3.64-3.614,9.7,9.7,0,0,1,4.98-1.312,10.116,10.116,0,0,1,7.2,2.437q2.6,2.436,2.6,6.986v19.006h-6.1v-17.4a7.228,7.228,0,0,0-1.367-4.71,5.092,5.092,0,0,0-4.041-1.5,6.159,6.159,0,0,0-4.845,2.087,7.552,7.552,0,0,0-1.847,5.193v16.328h-6.1Z" transform="translate(1189.136 456.741)"/><path class="b" d="M-955.757-455.258h6.692l7.228,20.664h.106l7.014-20.664h6.37l-10.76,29.177c-.073.178-.161.428-.269.75q-.962,2.355-1.606,3.693a11.349,11.349,0,0,1-1.659,2.516,7.043,7.043,0,0,1-2.543,1.848,9.269,9.269,0,0,1-3.72.668,27.919,27.919,0,0,1-4.23-.32v-5.14l.589.108a14.176,14.176,0,0,0,2.3.268,3.671,3.671,0,0,0,2.811-.91,8.016,8.016,0,0,0,1.473-2.945l.7-2.14Z" transform="translate(1163.164 456.008)"/><path class="b" d="M-872.63-427.58h-6v-3.856h-.106a8.714,8.714,0,0,1-3.321,3.321,8.9,8.9,0,0,1-4.551,1.283q-5.354,0-7.843-2.7t-2.489-8.165v-17.559h6.1v16.969q0,3.533,1.339,5.087a4.946,4.946,0,0,0,3.961,1.552q3.587,0,5.194-2.035a8.663,8.663,0,0,0,1.606-5.513v-16.061h6.1Z" transform="translate(1134.108 456.008)"/><path class="b" d="M-835.185-437.2a4.6,4.6,0,0,0,1.928,3.668,7.6,7.6,0,0,0,4.336,1.152,15.472,15.472,0,0,0,2.035-.134,7.765,7.765,0,0,0,1.979-.535,3.908,3.908,0,0,0,1.554-1.124,2.836,2.836,0,0,0,.589-1.847,2.922,2.922,0,0,0-1.82-2.624,25.734,25.734,0,0,0-5.3-1.553q-1.5-.323-1.927-.428a28.132,28.132,0,0,1-3.48-.964,10.464,10.464,0,0,1-2.73-1.445,6.544,6.544,0,0,1-1.955-2.329,7.542,7.542,0,0,1-.722-3.454,6.47,6.47,0,0,1,1.043-3.694A7.75,7.75,0,0,1-836.9-455a13,13,0,0,1,3.721-1.34,20.551,20.551,0,0,1,4.042-.4,13.923,13.923,0,0,1,7.656,1.927,8.85,8.85,0,0,1,2.624,2.7,9.355,9.355,0,0,1,1.284,3.881h-6.37a3.853,3.853,0,0,0-1.874-2.863,7.651,7.651,0,0,0-3.747-.83,12.868,12.868,0,0,0-1.606.107,6.218,6.218,0,0,0-1.633.428,3.507,3.507,0,0,0-1.285.882,2.036,2.036,0,0,0-.508,1.42,2.589,2.589,0,0,0,1.712,2.489,27.148,27.148,0,0,0,5.354,1.527q1.6.374,1.927.429a35.284,35.284,0,0,1,3.479,1.015,11.513,11.513,0,0,1,2.757,1.419,6.278,6.278,0,0,1,1.982,2.276,7.251,7.251,0,0,1,.722,3.374,7.658,7.658,0,0,1-1.07,4.094,8.293,8.293,0,0,1-2.864,2.811,13.769,13.769,0,0,1-3.989,1.579,19.628,19.628,0,0,1-4.444.508,14.631,14.631,0,0,1-8.834-2.462,8.457,8.457,0,0,1-3.426-7.175Z" transform="translate(1106.621 456.741)"/></g></g><g transform="translate(-1579.675 -498.478)"><path class="a" d="M-1496.2-482.541v51.6A15.939,15.939,0,0,1-1512.133-415h-51.605a15.939,15.939,0,0,1-15.937-15.939v-51.6a15.938,15.938,0,0,1,15.937-15.937h51.605a15.938,15.938,0,0,1,15.937,15.937" transform="translate(1579.675 498.478)"/><g transform="translate(19.557 8.771)"><path class="c" d="M-1496.71-480.228c.005-.72-.254-.925-.942-.913-2.062.031-4.13.039-6.2,0-.737-.015-1.05.176-1.013.974.061,1.24.017,2.485.017,3.991-.437-.276-.628-.383-.806-.51a22.182,22.182,0,0,0-17.05-4c-11.2,1.77-19.76,13.23-18.129,24.412,1.8,12.391,12.144,20.531,24.554,19.33,10.318-1,19.071-9.91,19.459-20.262.289-7.667.073-15.347.105-23.021m-8.122,21.312a13.909,13.909,0,0,1-13.909,13.909,13.909,13.909,0,0,1-13.908-13.909,13.909,13.909,0,0,1,13.908-13.909A13.909,13.909,0,0,1-1504.832-458.916Z" transform="translate(1541.028 481.145)"/><path class="c" d="M-1490.154-388.216a.948.948,0,0,1,1.035,1.124,22.172,22.172,0,0,1-21.7,17.783,22.037,22.037,0,0,1-14.209-5.175.95.95,0,0,1-.03-1.432l4.688-4.251a.952.952,0,0,1,1.21-.053,13.911,13.911,0,0,0,8.342,2.766,14.015,14.015,0,0,0,13.216-9.4.945.945,0,0,1,.79-.628Z" transform="translate(1533.295 435.244)"/></g></g></g></svg>